<svg  version="1.1" id="Layer_1" x="0px" y="0px" width="64px" height="64px" viewBox="0 0 64 64" xml:space="preserve">
  <path d="M56.883 57.922H7.064l.035-20.798 8.075-29.603h11.237v2h-9.709l-7.638 28v18.401h45.819V37.525L46.962 9.521h-8.259v-2h9.773l8.407 29.866z"/>
  <path d="M31.973 47.592c-5.535 0-10.037-4.504-10.037-10.039h2c0 4.433 3.605 8.039 8.037 8.039s8.039-3.606 8.039-8.039h2c0 5.535-4.503 10.039-10.039 10.039z"/>
  <path d="M8.064 36.553h15.889v2H8.064z"/>
  <path d="M40.016 36.553h15.92v2h-15.92z"/>
  <g>
    <path d="M30.772 7.078h2v27h-2z"/>
    <path d="M31.569 35.695L19.892 20.308l1.592-1.209 10.141 13.362 10.912-13.39 1.551 1.264z"/>
  </g>
</svg>