<svg version="1.1" id="Layer_1" x="0px" y="0px" width="64px" height="64px" viewBox="0 0 64 64" xml:space="preserve">
  <path d="M56.883 57.201H7.064l.035-20.798 8.075-29.604h33.301l8.407 29.867v20.535zm-47.819-2h45.819V36.805L46.962 8.799h-30.26L9.064 36.8v18.401z"/>
  <path d="M31.974 46.869c-5.535 0-10.038-4.503-10.038-10.037h2c0 4.432 3.606 8.037 8.038 8.037s8.038-3.605 8.038-8.037h2c0 5.534-4.503 10.037-10.038 10.037z"/>
  <path d="M8.064 35.832h15.889v2H8.064z"/>
  <path d="M40.016 35.832h15.92v2h-15.92z"/>
  <g>
    <path transform="matrix(0.7414 0.6711 -0.6711 0.7414 23.9396 -17.6362)" d="M33.853 12.019h1.999v20.449h-1.999z"/>
    <path transform="matrix(0.7562 0.6544 -0.6544 0.7562 24.0934 -10.4625)" d="M21.92 26.098h8.33v2h-8.33z"/>
  </g>
</svg>