      <svg
        xmlns="http://www.w3.org/2000/svg"
        viewBox="0 0 604 178"
        class="cta-back-svg"
      >
        <path
          d="M1633,0c-19.4,18.73-55.56,47.79-108,60-34.21,8-70.89,16.51-96-3-17.27-13.41-22.53-35-48-42-7.19-2-9.82-1.09-25-4a261.88,261.88,0,0,1-40-11Z"
          transform="translate(-1316)"
          style="fill: '#ffffff'; opacity: 0.15"
        ></path>
        <path
          d="M1920,0V146.85c-14.7,5.55-28.79,12.05-49,18.15-9.73,2.94-42.25,12.77-72,13-72.59.56-78.87-56.38-182-90-38.62-12.59-65.18-13.55-99-40a187.6,187.6,0,0,1-43-48Z"
          transform="translate(-1316)"
          style="fill: '#ffffff'; opacity: 0.2"
        ></path>
        <path
          d="M1882,0c9.29,27.61-36.45,83.32-63,79-12.19-2-14.6-15.7-38-25-17.81-7.08-24.76-2.45-37-9-9.63-5.15-21.36-16.58-28-45Z"
          transform="translate(-1316)"
          style="fill: '#ffffff'; opacity: 0.1"
        ></path>
      </svg>